<?xml version="1.0" standalone="no"?>
<!DOCTYPE svg PUBLIC "-//W3C//DTD SVG 20010904//EN"
 "http://www.w3.org/TR/2001/REC-SVG-20010904/DTD/svg10.dtd">
<svg version="1.0" xmlns="http://www.w3.org/2000/svg"
 width="500.000000pt" height="500.000000pt" viewBox="0 0 500.000000 500.000000"
 preserveAspectRatio="xMidYMid meet">
<metadata>
Created by potrace 1.11, written by Peter Selinger 2001-2013
</metadata>
<g transform="translate(0.000000,500.000000) scale(0.100000,-0.100000)"
fill="#000000" stroke="none">
<path d="M1597 4790 c-187 -75 -353 -161 -482 -248 l-100 -68 -6 -72 c-4 -54
-11 -80 -29 -104 -13 -18 -55 -95 -93 -173 -38 -77 -89 -171 -113 -210 -23
-38 -47 -90 -53 -115 -24 -108 -52 -153 -172 -278 l-116 -121 -16 35 c-23 47
-22 56 16 116 18 29 38 69 45 89 16 48 16 140 0 209 l-14 55 -32 -47 c-70
-102 -201 -352 -235 -450 -6 -17 62 -88 84 -88 8 0 10 -20 6 -65 -4 -56 -12
-77 -55 -148 -27 -45 -64 -110 -81 -144 l-31 -62 1 -258 c0 -245 1 -256 16
-223 112 245 243 455 291 466 15 4 53 15 84 25 39 13 86 19 147 19 127 0 191
22 288 100 103 84 310 179 466 214 20 5 27 12 27 31 0 20 5 25 25 25 20 0 25
5 25 24 0 26 -8 32 -167 119 -45 25 -90 48 -100 50 -101 29 -163 52 -163 62 0
34 242 174 385 224 119 40 335 88 335 74 0 -5 23 -26 50 -46 28 -21 50 -43 50
-51 0 -7 9 -25 20 -38 15 -19 26 -24 46 -20 15 3 29 13 31 23 4 13 18 21 44
25 29 5 39 11 39 25 0 9 8 20 18 22 11 3 8 5 -9 6 -18 1 -34 14 -56 45 l-31
43 52 11 c95 20 270 34 340 28 38 -4 106 -15 150 -25 62 -15 119 -19 241 -19
88 1 154 3 146 6 -7 2 -48 32 -90 66 l-76 61 33 49 c46 68 50 92 21 122 -58
62 -77 67 -262 69 -163 1 -172 0 -197 -21 -23 -20 -32 -21 -66 -14 -184 43
-493 9 -770 -85 -99 -34 -340 -139 -399 -174 -16 -10 -67 -41 -112 -69 -46
-28 -83 -47 -83 -42 0 27 74 161 112 201 50 54 81 74 125 82 17 4 71 29 120
57 124 72 301 157 345 165 47 9 64 27 43 45 -11 9 -44 11 -124 8 -79 -4 -114
-2 -132 8 -13 7 -44 13 -68 14 -60 0 -49 11 109 105 130 77 141 87 260 228 44
53 65 87 53 87 -4 0 -75 -27 -156 -60z"/>
<path d="M3216 4428 c-4 -16 0 -27 12 -35 33 -23 42 -34 42 -49 0 -12 -4 -13
-21 -4 -11 6 -23 19 -26 28 -7 18 -33 41 -46 42 -4 0 -3 -9 3 -20 10 -19 9
-20 -17 -14 -15 3 -34 7 -40 10 -7 2 -13 -3 -13 -11 0 -8 11 -17 25 -21 14 -3
25 -12 25 -20 0 -9 11 -14 28 -14 15 0 38 -9 51 -19 22 -17 23 -19 7 -48 -15
-30 -15 -31 6 -37 13 -3 29 1 40 10 21 20 41 9 33 -17 -5 -16 -1 -19 21 -19
20 0 41 -14 77 -51 49 -51 59 -83 12 -39 -20 18 -25 20 -25 8 0 -11 -6 -14
-19 -11 -10 3 -29 -1 -41 -7 l-22 -12 21 -21 c19 -19 24 -20 56 -8 36 13 89 8
113 -11 14 -12 17 -32 2 -23 -5 3 -26 3 -45 -1 l-36 -6 22 -24 c26 -28 47 -30
75 -9 27 20 28 20 76 -31 54 -57 110 -140 149 -222 l30 -63 -27 -22 c-15 -12
-34 -22 -43 -24 -59 -8 -59 -8 -54 -80 8 -105 46 -128 128 -78 22 14 43 25 46
25 4 0 17 -55 29 -122 22 -123 49 -242 89 -393 22 -80 33 -236 18 -251 -4 -4
-27 3 -52 15 -36 18 -47 30 -57 63 -6 22 -23 47 -36 56 -70 48 -88 85 -56 116
8 9 12 20 9 26 -14 22 -96 -15 -162 -73 -29 -25 -39 -29 -74 -24 -45 6 -80 32
-72 53 3 8 -1 14 -10 14 -8 0 -24 -22 -36 -51 -20 -50 -20 -69 0 -69 5 0 26
-16 46 -36 59 -59 215 -120 357 -139 66 -9 96 -40 96 -97 -1 -43 -16 -75 -69
-146 -30 -39 -37 -40 -44 -4 -6 32 -58 109 -130 197 -81 98 -97 101 -90 17 4
-48 0 -78 -25 -158 -39 -126 -64 -248 -60 -293 l3 -34 -162 -83 c-89 -46 -159
-76 -156 -68 3 8 9 14 13 14 14 0 44 95 44 140 0 25 -6 68 -13 97 -16 67 -66
104 -146 111 -52 4 -54 3 -74 -29 -22 -35 -28 -98 -12 -127 5 -9 14 -61 21
-115 l11 -98 -30 -48 c-28 -43 -38 -50 -108 -74 -43 -15 -81 -27 -84 -27 -3 0
1 24 9 53 18 62 23 322 7 371 -14 44 -48 47 -65 6 -15 -36 -178 -215 -228
-250 -48 -34 -81 -104 -98 -207 -7 -47 -15 -87 -17 -90 -2 -2 -77 -26 -167
-54 -90 -27 -172 -55 -183 -60 -27 -15 -29 -8 -11 42 9 27 17 91 20 167 6 188
-9 199 -138 95 -158 -127 -299 -266 -366 -358 -98 -136 -130 -213 -100 -243 9
-9 -5 -29 -60 -84 -164 -168 -249 -348 -278 -593 -4 -33 -9 -52 -12 -42 -3 14
-7 16 -18 6 -11 -9 -14 -7 -14 12 0 13 -7 38 -16 54 -25 48 -17 159 31 380 26
124 37 154 55 160 10 3 20 11 23 18 2 7 34 48 69 92 36 44 71 91 78 105 7 14
32 54 56 90 23 36 54 95 69 130 34 82 69 132 139 202 53 53 71 88 44 88 -19 0
-94 -28 -141 -52 -72 -36 -178 -114 -255 -186 -19 -18 -37 -30 -40 -27 -3 3 0
11 6 17 7 7 12 19 12 27 0 26 50 118 80 146 31 30 39 55 17 55 -7 0 -46 -20
-88 -44 -130 -76 -270 -248 -380 -466 -59 -117 -81 -177 -113 -305 -27 -107
-31 -126 -41 -222 -8 -73 -6 -76 100 -172 192 -175 432 -338 609 -416 51 -23
58 -24 51 -8 -40 102 -56 258 -35 366 7 37 12 69 12 72 -1 12 50 131 73 171
27 46 49 61 128 88 47 16 49 15 95 -9 67 -35 126 -83 161 -132 16 -23 51 -56
78 -74 67 -46 145 -121 135 -131 -16 -16 -127 -48 -167 -48 -53 0 -135 -41
-158 -79 -20 -34 -22 -87 -5 -128 34 -82 36 -111 12 -161 -31 -63 -30 -70 10
-78 44 -8 48 -5 92 61 19 30 49 66 66 80 16 14 27 25 23 25 -6 0 6 18 72 103
18 23 49 75 68 114 34 71 47 84 60 63 3 -5 29 -10 56 -10 89 0 196 -46 296
-127 43 -35 67 -37 56 -5 -14 37 -232 349 -301 430 -41 48 -83 106 -93 129
-11 23 -37 55 -58 72 -81 64 -151 76 -244 41 l-55 -21 -45 24 -46 23 87 43
c48 24 146 63 217 86 72 23 151 52 176 63 40 17 185 62 258 79 19 5 33 -4 71
-43 69 -72 122 -111 203 -152 82 -42 93 -43 360 -28 92 5 157 13 157 19 0 31
-145 163 -210 190 -8 4 -33 18 -55 32 -65 41 -117 63 -168 70 -27 4 -45 11
-40 16 4 4 73 28 153 54 80 25 154 48 165 52 52 17 103 8 152 -27 87 -61 126
-99 154 -148 78 -138 223 -178 507 -141 75 10 100 10 129 0 25 -9 38 -10 46
-2 17 17 -10 55 -77 108 -64 50 -233 199 -276 242 -14 14 -36 42 -48 63 -28
46 -40 50 -136 49 l-80 -2 41 30 c23 16 65 42 94 57 30 15 70 38 89 52 41 30
157 147 196 197 14 19 33 35 41 35 7 0 26 9 42 21 15 11 59 28 97 38 122 33
129 37 216 141 42 50 158 223 158 235 0 15 -68 1 -169 -35 -62 -22 -118 -43
-124 -47 -7 -4 -8 0 -2 13 4 10 13 39 20 63 6 24 23 54 37 65 13 12 42 35 62
51 21 17 47 38 58 48 12 9 39 22 60 29 21 6 43 17 49 25 6 7 23 13 38 13 14 0
31 4 36 8 11 7 43 93 48 127 4 29 48 85 67 85 37 0 89 50 120 118 17 37 36 77
43 90 8 18 8 31 -2 55 -7 18 -20 54 -28 80 -15 47 -16 49 -48 45 -32 -4 -33
-2 -28 23 14 69 -58 206 -170 325 -22 23 -38 46 -37 50 4 21 -20 12 -38 -13
-38 -55 -72 -213 -72 -338 0 -93 25 -379 35 -394 18 -30 -109 -211 -149 -211
-8 0 -18 -9 -21 -20 -3 -11 -13 -20 -21 -20 -8 0 -12 5 -9 10 6 9 0 70 -20
220 -9 67 -98 326 -151 437 -52 111 -52 113 -37 145 31 61 28 115 -10 207
l-35 84 -18 -23 c-11 -12 -26 -30 -35 -39 -9 -9 -24 -31 -33 -48 -9 -18 -18
-33 -19 -33 -2 0 -27 30 -56 66 -52 65 -53 67 -47 115 6 41 3 54 -14 76 -11
14 -20 32 -20 40 0 8 -4 12 -9 9 -15 -9 -20 -60 -11 -101 5 -22 7 -41 5 -44
-3 -2 -25 16 -50 41 -35 35 -45 53 -45 77 0 29 -64 140 -81 141 -4 0 -10 -16
-14 -36 l-6 -36 -31 28 c-26 26 -29 34 -24 70 6 47 -2 86 -16 78 -6 -4 -14 0
-19 7 -13 20 -12 -48 1 -72 16 -28 3 -23 -56 22 -70 53 -87 80 -74 114 13 34
13 34 -9 28 -14 -4 -20 1 -23 17 -2 13 -13 29 -24 37 -20 13 -22 12 -28 -9z"/>
<path d="M3025 3950 c-19 -7 -65 -54 -65 -65 0 -3 24 -3 53 0 28 3 65 2 82 -3
l29 -8 -47 -20 c-60 -24 -63 -49 -8 -58 22 -3 41 -12 44 -18 7 -20 36 1 60 43
l21 36 -52 52 c-51 51 -74 59 -117 41z"/>
<path d="M2756 3801 c5 -5 43 -31 86 -59 117 -78 179 -185 137 -233 -22 -26
-24 -37 -6 -35 6 0 13 -3 15 -9 2 -5 13 -14 24 -18 31 -11 40 9 34 71 l-5 54
21 -19 c43 -37 87 -88 88 -100 0 -7 6 -13 14 -13 8 0 28 -11 44 -25 17 -14 42
-25 56 -25 14 0 26 -4 26 -10 0 -5 -6 -10 -12 -10 -21 0 14 -20 35 -20 22 0
15 32 -15 64 -19 21 -19 21 3 39 26 21 18 30 -42 47 -28 8 -49 28 -98 90 -34
44 -66 80 -70 80 -5 0 -11 9 -14 20 -4 14 -14 20 -35 20 -50 0 -92 12 -92 26
0 9 -11 14 -27 14 -15 0 -43 11 -62 24 -33 22 -126 46 -105 27z"/>
<path d="M2203 3743 c-7 -2 -13 -11 -13 -19 0 -8 -9 -14 -20 -14 -11 0 -20 -4
-20 -9 0 -5 -3 -16 -6 -25 -5 -14 4 -16 61 -16 56 0 75 -5 111 -27 42 -27 59
-63 29 -63 -8 0 -15 -6 -15 -14 0 -16 -50 -26 -132 -26 -48 0 -58 -3 -58 -17
-1 -17 -1 -17 -14 0 -17 21 -30 22 -22 1 4 -11 -1 -18 -14 -21 -11 -3 -20 -8
-20 -12 0 -14 66 -71 83 -71 9 0 31 -16 49 -36 18 -20 43 -47 55 -60 12 -13
30 -37 40 -54 42 -72 68 -2 35 95 l-20 58 59 -6 c33 -3 67 -11 75 -18 22 -18
43 5 26 29 -18 25 -28 50 -47 112 -39 129 -155 241 -222 213z"/>
<path d="M2020 3595 c0 -8 7 -15 15 -15 8 0 15 7 15 15 0 8 -7 15 -15 15 -8 0
-15 -7 -15 -15z"/>
<path d="M3005 3340 c3 -5 11 -10 16 -10 6 0 7 5 4 10 -3 6 -11 10 -16 10 -6
0 -7 -4 -4 -10z"/>
<path d="M383 2390 c-93 -24 -142 -50 -199 -105 -25 -25 -50 -45 -55 -45 -5 0
-9 -40 -9 -90 l0 -89 37 25 c30 20 48 24 97 23 65 -2 152 20 195 48 14 9 40
31 56 49 67 72 204 147 260 141 12 -1 20 4 20 13 0 48 -260 67 -402 30z"/>
<path d="M317 1644 c-1 -2 -32 -4 -67 -6 -73 -4 -74 -5 -39 -83 l20 -45 55 52
c31 29 64 56 75 60 10 4 19 9 19 12 0 4 -59 14 -63 10z"/>
<path d="M366 1251 c-3 -5 0 -13 7 -19 8 -6 18 -4 31 9 19 19 19 19 -7 19 -14
0 -28 -4 -31 -9z"/>
</g>
</svg>
